<svg width="411" height="823" viewBox="0 0 411 823" fill="none" xmlns="http://www.w3.org/2000/svg">
<path d="M66.71 -36.9378C68.643 -40.2859 72.9241 -41.433 76.2721 -39.5L613.561 270.704C616.909 272.637 618.057 276.918 616.124 280.266L442.494 581.002C440.273 584.849 434.378 582.557 435.338 578.22V578.22C458.848 472.047 369.555 374.861 261.775 389.314L150.397 404.25V404.25C49.6933 412.15 -48.5904 370.734 -113.268 293.142L-119.146 286.089C-119.375 285.815 -119.408 285.428 -119.229 285.119L66.71 -36.9378Z" fill="#2F80ED" fill-opacity="0.5"/>
<path d="M-97.8587 5.44345C-97.8587 1.57746 -94.7247 -1.55656 -90.8587 -1.55656H458.141C462.007 -1.55656 465.141 1.57744 465.141 5.44344V305.512C465.141 309.433 459.632 310.301 458.427 306.57V306.57C429.136 215.917 319.236 181.152 243.138 238.467L162.223 299.41V299.41C88.1475 349.107 -5.13602 360.648 -89.0891 330.5L-97.3485 327.534C-97.6546 327.424 -97.8587 327.134 -97.8587 326.809V5.44345Z" fill="#2F80ED"/>
<path d="M480.184 1079.94C479.907 1083.8 476.555 1086.7 472.699 1086.42L-74.8807 1046.96C-78.7367 1046.69 -81.6374 1043.33 -81.3595 1039.48L-59.7928 740.187C-59.511 736.275 -53.9538 735.806 -53.0194 739.614V739.614C-30.3196 832.137 76.7968 874.711 156.817 823.014L241.904 768.044V768.044C319.359 723.799 413.231 718.993 494.8 755.097L502.825 758.649C503.122 758.78 503.305 759.084 503.282 759.409L480.184 1079.94Z" fill="#2F80ED"/>
</svg>
