<svg id="Calque_1" data-name="Calque 1" xmlns="http://www.w3.org/2000/svg" xmlns:xlink="http://www.w3.org/1999/xlink" viewBox="0 0 1024 1024">
  <defs>
    <style>
      .cls-1 { fill: #1073BA; }
      .cls-2 { fill: #1073BA; }
      .cls-3 { fill: #1073BA; }
      .cls-4 { fill: #1073BA; }
    </style>
  </defs>
  <path class="cls-1" d="M614,705.62V437.27h59.8v73.87l-7-21.61a85.15,85.15,0,0,1,37.68-41.2q26.13-14.07,64.83-14.07v59.8a30.68,30.68,0,0,0-7.54-1,50.36,50.36,0,0,0-7-.5q-35.68,0-56.79,21.1-21.11,20.61-21.1,61.81V705.62Zm188.46,0V437.27h62.82V705.62Zm31.66-312.57q-17.58,0-29.14-11.06a36.28,36.28,0,0,1-11.06-26.63q0-16.08,11.06-26.63,11.55-11.06,29.14-11.06t28.65,10.56a32.45,32.45,0,0,1,11.55,25.62q0,16.59-11,28.14Q852.18,393,834.08,393.05Z"/>
  <path class="cls-2" d="M421.6,680.7A155.94,155.94,0,0,1,267,524.77c0-85.66,69.2-155.21,154.74-155.93,19-.16,38.26,5,38.26,5a157.18,157.18,0,0,1,59.91,30.7l56.93-48.36a229.23,229.23,0,0,0-154.38-61.32h-1.55C294.9,296.07,193,398.55,193,524.77S294.66,753.35,420.53,754.55h2.38A229.22,229.22,0,0,0,571.56,698l-47.95-56.32A155.21,155.21,0,0,1,421.6,680.7Z"/>
  <path class="cls-3" d="M682.39,430.72,468.51,609.56a26,26,0,0,1-8.59,4.72,28,28,0,0,1-10,1.32,28.4,28.4,0,0,1-9.83-2.29,26.45,26.45,0,0,1-8.19-5.54l-52.16-52.13L612.59,361a49.69,49.69,0,0,1,34.23-11.13,50.59,50.59,0,0,1,33.23,14.43L684.8,369a42.3,42.3,0,0,1,12.77,31.54A41.42,41.42,0,0,1,682.39,430.72Z"/>
  <path class="cls-4" d="M415,626.35,314.47,525.86a39.66,39.66,0,0,1-11.87-30.27,41.23,41.23,0,0,1,15.12-29.28l6.57-5.5a49.21,49.21,0,0,1,33.24-11.15,47.55,47.55,0,0,1,31.91,13.51c16.75,16.75,17.59,16,45.78,45.74a144.24,144.24,0,0,0,75,27.65,148.51,148.51,0,0,0,54.62-6.24c-62.34,52.46-60.11,51.19-114.07,97.14a26,26,0,0,1-8.46,4.79,27.47,27.47,0,0,1-9.78,1.47,27.09,27.09,0,0,1-9.62-2.07A25,25,0,0,1,415,626.35Z"/>
</svg>
